<?xml version="1.0" encoding="UTF-8"?>
<svg id="Layer_1" data-name="Layer 1" xmlns="http://www.w3.org/2000/svg" viewBox="0 0 210.59 101.65">
  <defs>
    <style>
      .cls-1 {
        fill: #434242;
      }

      .cls-2 {
        fill: #444;
      }

      .cls-3 {
        fill: #8f8f8f;
      }

      .cls-4 {
        fill: #454545;
      }

      .cls-5 {
        fill: #ebebeb;
      }

      .cls-6 {
        fill: #e1e2e1;
      }

      .cls-7 {
        fill: #a5a5a5;
      }

      .cls-8 {
        fill: #4f4f4f;
      }

      .cls-9 {
        fill: #424242;
      }

      .cls-10 {
        fill: #4e4e4e;
      }

      .cls-11 {
        fill: #525251;
      }

      .cls-12 {
        fill: #ededee;
      }

      .cls-13 {
        fill: #6f7070;
      }

      .cls-14 {
        fill: #515151;
      }

      .cls-15 {
        fill: #e0e1e0;
      }

      .cls-16 {
        fill: #fefefe;
      }

      .cls-17 {
        fill: #414141;
      }

      .cls-18 {
        fill: #afafaf;
      }

      .cls-19 {
        fill: #434343;
      }

      .cls-20 {
        fill: #fcfcfc;
      }

      .cls-21 {
        fill: #ededed;
      }

      .cls-22 {
        fill: #e0e0e0;
      }

      .cls-23 {
        fill: #fbfbfb;
      }
    </style>
  </defs>
  <path class="cls-19" d="M22.24,10.29v-5.03h166.12c.02,1.67-.03,3.36,0,5.03-1.67-.03-3.36,0-5.03,0-51.99-.26-104.06-.25-156.05,0-1.67,0-3.36-.03-5.03,0Z"/>
  <path class="cls-19" d="M27.27,90.83c50.48.24,101.04.23,151.52,0l1.51,1.01-.58,1.93-149.7.11-6.48-1.04c-1.3,1.58.68,1.77.71,3.03-.67-.01-1.35.02-2.02,0-.02-1.34.04-2.69,0-4.03h1.01s0-1.01,0-1.01c1.34.02,2.69,0,4.03,0Z"/>
  <path class="cls-19" d="M17.2,15.32c0,.17,0,.34,0,.5-.02,1.51,0,3.02,0,4.53-.06,13.25-.02,26.52,0,39.77,0,1.84,0,3.7,0,5.54.01,6.53-.09,13.1,0,19.63,0,.17,0,.34,0,.5-1.67-.04-3.36.03-5.03,0V15.32c1.67.04,3.36-.05,5.03,0Z"/>
  <path class="cls-1" d="M193.39,15.32c1.67.03,3.36-.02,5.03,0v70.47c-1.67.01-3.36-.02-5.03,0,.16-6.69-.02-13.44,0-20.14,0-1.84,0-3.7,0-5.54.04-13.25.07-26.52,0-39.77,0-1.67.03-3.36,0-5.03Z"/>
  <path class="cls-2" d="M181.3,91.33l2.51,2.78-1,1.07v.68c-.5,0-1.01,0-1.51,0l-1.74-1.01c-50.12,1.25-101.04-1.67-151.06,0-.97.03-2.02-.51-1.74,1.01-.84-.02-1.68.02-2.52,0-.03-1.25-2.01-1.44-.71-3.03l6.48,1.04,149.7-.11.58-1.93-1.51-1.01c1.08,0,2.11.51,2.52.5Z"/>
  <path class="cls-19" d="M26.77,95.86c-.28-1.52.77-.97,1.74-1.01,50.02-1.67,100.95,1.25,151.06,0l1.74,1.01c-51.17.48-103.41.93-154.54,0Z"/>
  <path class="cls-23" d="M27.27,10.29v5.04s-4.53,0-4.53,0l-1-2.52c.01-.84,0-1.68,0-2.52.17,0,.34,0,.5,0,1.67-.03,3.36,0,5.03,0Z"/>
  <path class="cls-2" d="M17.7,85.79c1.51.03,3.03-.02,4.53,0,.03,1.67-.04,3.36,0,5.04.34,0,.67,0,1.01,0v1.01s-1.01,0-1.01,0c0-.34,0-.67,0-1.01-1.67-.03-3.36.02-5.04,0-.02-1.67.03-3.36,0-5.04.17,0,.34,0,.5,0Z"/>
  <path class="cls-4" d="M188.35,10.29c1.67.03,3.36-.02,5.04,0,.02,1.67-.03,3.36,0,5.04-1.67-.03-3.36.04-5.03,0-.03-1.67.03-3.36,0-5.03Z"/>
  <path class="cls-19" d="M193.39,85.79c-.04,1.51.22,3.08-.22,4.56-.57.82-3.66.44-4.81.47.04-1.67-.03-3.36,0-5.04,1.67-.01,3.36.02,5.04,0Z"/>
  <path class="cls-17" d="M21.73,10.29c0,.84.01,1.68,0,2.52s.01,1.68,0,2.52c-.1.12-1.81-1.09-2.01,0-.61-.09-1.36.04-2.01,0-.17,0-.34,0-.5,0,.03-1.67-.02-3.36,0-5.04,1.5-.02,3.03.04,4.53,0Z"/>
  <path class="cls-19" d="M183.82,90.83c.17,2.17,2.8,2.11,4.53,2.01-.04,1,.03,2.02,0,3.02-1.84.02-3.7-.03-5.54,0v-.68s1-1.07,1-1.07l-2.51-2.78c.61,0,1.27-.5,1.51-.5.34,0,.67,0,1.01,0Z"/>
  <path class="cls-2" d="M188.35,90.83c-.02.67.03,1.34,0,2.01-1.73.09-4.36.16-4.53-2.01,1.51-.02,3.03.04,4.53,0Z"/>
  <path class="cls-21" d="M183.32,10.29l.47,4.81c1.48.44,3.05.18,4.56.22.03,1.67-.02,3.36,0,5.04h5.04c.07,13.24.04,26.52,0,39.76l-5.04.5c-.02,1.67.03,3.36,0,5.04-1.67,0-3.36,0-5.04,0l-.47,4.82c-51.79-.15-103.76.96-155.58.22,0-.34,0-.67,0-1.01-.03-1.34.03-2.69,0-4.03-1.51-.02-3.03.04-4.53,0l-.72-4.57-4.82-.97c-.02-13.25-.06-26.52,0-39.77l4.22.39c1.88-.85,1.45-2.97.87-4.63-.08-.11-2.29-.75-2.58-.79.2-1.09,1.91.12,2.01,0,.02-.84,0-1.68,0-2.52l1,2.52h4.54s0-5.04,0-5.04c51.99-.25,104.06-.26,156.05,0ZM63.26,24.88v.5c.33-.17.33-.34,0-.5ZM47.4,25.89c-.02,1.51.03,3.03,0,4.53-1.5.02-3.03-.07-4.53,0-.33.02-.67-.03-1.01,0v9.77c-.07.55.64.25,1.01.3,1.35.17,3.1-.02,4.53,0,.03,1.67-.02,3.36,0,5.03h10.07c.01,1.67-.02,3.36,0,5.03-4.85.12-9.74-.09-14.6,0l-.5.5v4.03l.5.5h14.09l.5-.5c-.01-1.51.02-3.02,0-4.53,1.17-.03,4.24.35,4.81-.47l.22-9.09v-1s-.75,0-.75,0l-.26.5c-3.01-.65-10.46.05-14.09,0-.06-3.34-.07-6.73,0-10.07,4.86-.06,9.74.05,14.6,0l.5-.5v-4.03l-.5-.5h-14.09l-.5.5ZM67.54,25.89v4.53s10.07,0,10.07,0v25.17h4.53l.5-.5v-24.67s9.56,0,9.56,0l.5-.5v-4.03l-.5-.5h-24.16l-.5.5ZM102.78,30.42c0,.17,0,.34,0,.5l-5.03-.5v25.17h4.53v-10.07h10.57v9.31c1.08,1.19,3.95,1.19,5.03,0v-24.41l-5.54.5c0-.17,0-.34,0-.5,0-1.09,1.04-3.45.5-5.03h-10.07v5.03ZM122.91,25.89v29.2l.5.5h4.03l.5-.5v-9.57s5.04,0,5.04,0l.47,4.82c1.48.45,3.05.17,4.56.22.03,1.67-.02,3.36,0,5.04h4.53s.5-.51.5-.51v-4.03l-.5-.5c-1.5-.03-3.03.05-4.53,0-.06-3.35.01-6.72,0-10.07,1.51-.03,3.02.02,4.53,0l.5-.5v-9.06l-.5-.5c-1.51-.02-3.02.03-4.53,0-.03-1.51.02-3.02,0-4.53l-.5-.5h-14.09l-.5.5ZM148.08,25.89v4.53s10.07,0,10.07,0v25.17h4.53l.5-.5v-24.67s9.56,0,9.56,0l.5-.5v-4.03l-.5-.5h-24.16l-.5.5Z"/>
  <path class="cls-23" d="M188.35,10.29c.03,1.67-.03,3.36,0,5.03,1.67.04,3.36-.03,5.03,0,.03,1.67,0,3.36,0,5.03h-5.04c-.02-1.67.03-3.36,0-5.03-1.51-.04-3.08.23-4.56-.22l-.47-4.81c1.67,0,3.36-.03,5.03,0Z"/>
  <path class="cls-3" d="M183.32,75.73c-.1,5.01.46,10.2-.5,15.1-.24,0-.9.5-1.51.5-.41,0-1.44-.51-2.52-.5-50.48.23-101.04.24-151.52,0-.02-5.03.02-10.08,0-15.1h156.05Z"/>
  <path class="cls-18" d="M22.24,65.66c.02,1.17-.03,2.35,0,3.52.01.5-.02,1.01,0,1.51,1.67.02,3.36-.02,5.04,0,.03,1.67,0,3.36,0,5.03.02,5.03-.02,10.08,0,15.1-1.34,0-2.69.02-4.03,0-.34,0-.67,0-1.01,0-.04-1.67.03-3.36,0-5.04-1.5-.02-3.03.04-4.53,0l-.5-.5c-.09-6.53.01-13.1,0-19.63,1.67,0,3.36,0,5.03,0Z"/>
  <path class="cls-23" d="M22.74,65.66c-.17,0-.34,0-.5,0-1.67,0-3.36,0-5.03,0,0-1.84,0-3.7,0-5.54l4.82.97.72,4.57Z"/>
  <path class="cls-20" d="M19.72,15.32c.28.04,2.5.69,2.58.79.57,1.66,1.01,3.77-.87,4.63l-4.22-.39c0-1.51-.02-3.02,0-4.53l.5-.5c.65.04,1.4-.09,2.01,0Z"/>
  <path class="cls-21" d="M17.2,15.82c0-.17,0-.34,0-.5.17,0,.34,0,.5,0l-.5.5Z"/>
  <path class="cls-7" d="M17.7,85.79c-.17,0-.34,0-.5,0,0-.17,0-.34,0-.5l.5.5Z"/>
  <path class="cls-13" d="M193.39,65.66c-.02,6.69.16,13.45,0,20.14-1.67.02-3.36-.01-5.04,0-.03,1.67.04,3.36,0,5.04-1.5.04-3.02-.02-4.53,0-.34,0-.67,0-1.01,0,.96-4.9.41-10.09.5-15.1.03-1.51-.02-3.03,0-4.53l4.82-.47c.44-1.65.19-3.39.22-5.07,1.67,0,3.36,0,5.03,0Z"/>
  <path class="cls-20" d="M193.39,60.12c0,1.84,0,3.7,0,5.54-1.67,0-3.36,0-5.03,0,.03-1.67-.02-3.36,0-5.04l5.04-.5Z"/>
  <path class="cls-16" d="M188.35,65.66c-.03,1.68.22,3.42-.22,5.07l-4.82.47c-.02,1.51.03,3.03,0,4.53H27.27c0-1.67.03-3.36,0-5.03,51.82.74,103.79-.37,155.58-.22l.47-4.82c1.67,0,3.36.01,5.04,0Z"/>
  <path class="cls-19" d="M102.78,30.92c0,.17,0,.34,0,.5-.24.05-.48.27-.5.5-.13,1.37-.25,8.34.47,8.84,2.55.1,6.43.65,8.84.21.67-.12,1.09-.28,1.26-1,.61-2.58-.46-6.6-.5-9.06l5.54-.5v24.41c-1.08,1.19-3.95,1.19-5.03,0v-9.31h-10.57v10.07h-4.53v-25.17l5.03.5Z"/>
  <path class="cls-19" d="M137.51,25.39l.5.5c.02,1.51-.03,3.02,0,4.53-3.35-.07-6.72.05-10.07,0v10.07c3.35-.05,6.72.07,10.07,0,.01,3.35-.06,6.72,0,10.07-1.51-.05-3.08.23-4.56-.22l-.47-4.82h-5.04s0,9.57,0,9.57l-.5.5h-4.03l-.5-.5v-29.2l.5-.5h14.09ZM127.69,29.41v.5c.33-.17.33-.34,0-.5ZM127.69,40.99v.5c.33-.17.33-.34,0-.5Z"/>
  <polygon class="cls-1" points="172.75 25.39 173.25 25.89 173.25 29.92 172.75 30.42 163.18 30.42 163.18 55.09 162.68 55.59 158.15 55.59 158.15 30.42 148.08 30.42 148.08 25.89 148.58 25.39 172.75 25.39"/>
  <polygon class="cls-1" points="92.21 25.39 92.71 25.89 92.71 29.92 92.21 30.42 82.64 30.42 82.64 55.09 82.14 55.59 77.61 55.59 77.61 30.42 67.54 30.42 67.54 25.89 68.04 25.39 92.21 25.39"/>
  <path class="cls-2" d="M61.5,40.49c.1.02.52.69,1.01.5l-.22,9.09c-.57.82-3.64.44-4.81.47-.02-1.67.01-3.36,0-5.03h-10.07c-.02-1.67.03-3.36,0-5.03,3.64.05,11.08-.65,14.09,0Z"/>
  <path class="cls-12" d="M112.34,30.42c0,.17,0,.34,0,.5.04,2.46,1.12,6.48.5,9.06h-9.57c-.13-2.25.17-4.59.03-6.84-.04-.67-.52-1.15-.53-1.21,0-.17,0-.34,0-.5s0-.34,0-.5,0-.34,0-.5h9.56Z"/>
  <path class="cls-19" d="M62,25.39l.5.5v4.03l-.5.5c-4.86.05-9.74-.06-14.6,0,.03-1.51-.02-3.03,0-4.53l.5-.5h14.09Z"/>
  <path class="cls-1" d="M57.47,50.56c.02,1.51-.01,3.02,0,4.53l-.5.5h-14.09l-.5-.5v-4.03l.5-.5c4.85-.09,9.74.12,14.6,0Z"/>
  <path class="cls-4" d="M102.78,30.42v-5.03h10.07c.53,1.58-.5,3.94-.5,5.03h-9.56Z"/>
  <path class="cls-9" d="M142.54,30.42l.5.5v9.06l-.5.5c-1.51.02-3.02-.03-4.53,0-.01-3.35.07-6.72,0-10.07,1.51.03,3.02-.02,4.53,0Z"/>
  <path class="cls-19" d="M47.4,30.42c-.07,3.34-.06,6.73,0,10.07-1.43-.02-3.18.17-4.53,0v-10.07c1.5-.07,3.03.02,4.53,0Z"/>
  <path class="cls-9" d="M142.54,50.56l.5.5v4.03l-.5.5h-4.53c-.02-1.67.03-3.36,0-5.03,1.5.05,3.03-.03,4.53,0Z"/>
  <path class="cls-16" d="M22.74,65.66c1.51.03,3.03-.03,4.53,0,.02,1.34-.04,2.69,0,4.03l-5.03-.5c-.03-1.17.02-2.35,0-3.52.17,0,.34,0,.5,0Z"/>
  <path class="cls-14" d="M42.87,30.42v10.07c-.37-.05-1.07.25-1.02-.3v-9.77c.34-.02.68.02,1.02,0Z"/>
  <path class="cls-23" d="M27.27,69.69c0,.34,0,.67,0,1.01-1.67-.02-3.36.02-5.04,0-.02-.5.02-1.01,0-1.51l5.03.5Z"/>
  <path class="cls-15" d="M61.5,40.49l.26-.5h.75s0,1,0,1c-.49.19-.91-.48-1.01-.5Z"/>
  <path class="cls-14" d="M42.37,51.06l.5-.5-.5.5Z"/>
  <path class="cls-11" d="M142.54,40.49l.5-.5-.5.5Z"/>
  <path class="cls-11" d="M143.05,51.06l-.5-.5.5.5Z"/>
  <path class="cls-14" d="M42.87,55.59l-.5-.5.5.5Z"/>
  <path class="cls-14" d="M56.97,55.59l.5-.5-.5.5Z"/>
  <path class="cls-11" d="M82.14,55.59l.5-.5-.5.5Z"/>
  <path class="cls-14" d="M123.42,55.59l-.5-.5.5.5Z"/>
  <path class="cls-14" d="M127.44,55.59l.5-.5-.5.5Z"/>
  <path class="cls-11" d="M142.54,55.59l.5-.5-.5.5Z"/>
  <path class="cls-11" d="M162.68,55.59l.5-.5-.5.5Z"/>
  <path class="cls-10" d="M67.54,25.89l.5-.5-.5.5Z"/>
  <path class="cls-6" d="M63.26,24.88c.33.17.33.34,0,.5v-.5Z"/>
  <path class="cls-14" d="M172.75,30.42l.5-.5-.5.5Z"/>
  <path class="cls-14" d="M92.21,30.42l.5-.5-.5.5Z"/>
  <path class="cls-8" d="M62,30.42l.5-.5-.5.5Z"/>
  <path class="cls-14" d="M173.25,25.89l-.5-.5.5.5Z"/>
  <path class="cls-8" d="M47.4,25.89l.5-.5-.5.5Z"/>
  <path class="cls-10" d="M148.08,25.89l.5-.5-.5.5Z"/>
  <path class="cls-8" d="M138.01,25.89l-.5-.5.5.5Z"/>
  <path class="cls-14" d="M122.91,25.89l.5-.5-.5.5Z"/>
  <path class="cls-14" d="M92.71,25.89l-.5-.5.5.5Z"/>
  <path class="cls-8" d="M62.51,25.89l-.5-.5.5.5Z"/>
  <path class="cls-11" d="M143.05,30.92l-.5-.5.5.5Z"/>
  <path class="cls-22" d="M102.78,31.93c0,.07.48.54.53,1.21.15,2.25-.15,4.59-.03,6.84h9.57c-.17.71-.59.88-1.26,1-2.41.43-6.29-.11-8.84-.21-.72-.5-.6-7.47-.47-8.84h.5Z"/>
  <path class="cls-21" d="M102.78,31.93h-.5c.02-.23.27-.45.5-.5,0,.17,0,.34,0,.5Z"/>
  <path class="cls-5" d="M138.01,30.42c.07,3.35-.01,6.72,0,10.07-3.35.07-6.72-.05-10.07,0v-10.07c3.35.05,6.72-.07,10.07,0Z"/>
  <path class="cls-8" d="M127.69,40.99c.33.17.33.34,0,.5v-.5Z"/>
  <path class="cls-8" d="M127.69,29.41c.33.17.33.34,0,.5v-.5Z"/>
</svg>