<?xml version="1.0" encoding="UTF-8"?>
<svg id="Layer_1" data-name="Layer 1" xmlns="http://www.w3.org/2000/svg" viewBox="0 0 210.59 203.48">
  <path d="M107.76,8.91c2.56.78,5.21,1.31,7.44,2.89,27.18,25.53,52.94,52.72,79.59,78.87l2.17,3.82c-.04.47.07.99,0,1.45-.68,4.61-6.05,7.23-9.97,4.35L110.13,23.4c-3.58-2.96-6.23-2.95-9.81,0L23.46,100.29c-6.66,4.21-13.33-3.9-7.8-9.62L92.53,13.8c2.6-2.19,6.76-4.48,10.16-4.89h5.08Z"/>
  <path d="M135.32,194.58v-71.26c0-.45-.7-3.2-.92-3.8-1.22-3.35-4.63-4.84-7.95-5.1-13.84-1.09-29.13.8-43.12.06-3.04-.28-9.29,3.99-9.29,7.03v73.07h-31c-5.28,0-12.74-7.35-12.46-12.92l.03-72.77L99.78,39.9c3.18-2.39,7.37-2.65,10.35.18l68.26,68.8.04,74.24c-.33,4.72-6.24,11.45-11.03,11.45h-32.09Z"/>
</svg>