<?xml version="1.0" encoding="UTF-8"?>
<svg id="Layer_1" data-name="Layer 1" xmlns="http://www.w3.org/2000/svg" viewBox="0 0 210.59 203.48">
  <defs>
    <style>
      .cls-1 {
        fill: #fff;
      }
    </style>
  </defs>
  <path d="M86.61,185.78c10.9-.67,26.45-.67,37.34,0,7.21.44,12.21,5.07,12.45,12.45h-62.24c.23-7.38,5.24-12,12.45-12.45Z"/>
  <path d="M8.81,106.03v-2.33c.78-.94,1.24-1.71,2.55-1.92,2.43-.39,10.66-.33,13.21-.03,3.96.46,3.96,5.78,0,6.24-2.55.3-10.78.35-13.21-.03-1.32-.21-1.78-.98-2.55-1.92Z"/>
  <path d="M142.63,67.52c-.1,3.1.13,6.24,0,9.34-.17,3.98-.64,8.48-1.17,12.45-1.04,7.8-2.81,16.46-5.84,23.73-1.05,2.51-3.23,6.35-4.74,8.68-1.07,1.64-2.71,3.08-3.43,4.94-1.6.4-2.43,2.12-3.7,3.1-3.76,2.88-7.21,4.5-11.86,5.45-.85.17-3.09.78-3.7.78h-5.84c-.6,0-2.85-.61-3.7-.78-5.06-1.03-8.21-2.69-12.24-5.85-1.18-.93-1.8-2.33-3.32-2.71-.72-1.86-2.35-3.29-3.43-4.94-1.51-2.3-3.7-6.18-4.74-8.68-3.03-7.28-4.81-15.92-5.84-23.73-.52-3.98-.99-8.45-1.17-12.45-.14-3.1.1-6.24,0-9.34h74.69ZM105.67,80.36c-.91-.2-.62.12-.87.5-.88,1.35-4.2,9.25-4.65,9.54l-11.6,1.63,8.1,8.06-1.48,11.39,10.24-4.97,9.98,4.97-1.5-11.41,8.11-7.85-11.59-1.82-4.75-10.04Z"/>
  <path d="M127.46,126.65c.71-1.86,2.36-3.29,3.43-4.94,1.51-2.32,3.7-6.17,4.74-8.68,13.28-1.88,28.39-9.41,31.12-23.73h-25.28c.53-3.97,1-8.47,1.17-12.45l31.33-.02c8.55.7,6.11,11.72,4.57,17.44-5.13,19.07-24.66,28.65-42.77,31.53-2.62.42-5.93.25-8.3.84Z"/>
  <path d="M67.94,76.86c.18,3.99.64,8.47,1.17,12.45h-25.28c2.73,14.33,17.85,21.82,31.12,23.73,1.04,2.5,3.24,6.38,4.74,8.68,1.08,1.64,2.71,3.08,3.43,4.94-2.37-.59-5.68-.43-8.3-.84-18.09-2.88-37.65-12.5-42.77-31.53-1.54-5.71-3.98-16.74,4.57-17.44l31.33.02Z"/>
  <path d="M142.63,67.52h-74.69c-7.18-.21-8.63-9.8-1.87-12.18l77.5-.23c7.47,1.67,7.04,11.76-.94,12.41Z"/>
  <path d="M92.83,160.88c8.29-.06,16.61-.06,24.9,0,2.07.02,4.16-.01,6.23,0v24.9c-10.9-.67-26.45-.67-37.35,0v-24.9c2.07,0,4.15.02,6.22,0ZM114.62,170.22h-18.67v6.22h18.67v-6.22Z"/>
  <path d="M111.9,135.21c.65,8.81,2.73,17.45,5.84,25.67-8.29-.06-16.61-.06-24.9,0,3.11-8.22,5.18-16.87,5.84-25.67.85.17,3.09.78,3.7.78h5.84c.6,0,2.85-.61,3.7-.78Z"/>
  <path d="M32.04,24.03c1.32-.29,1.98-.02,3.02.7,1.7,1.18,12.24,11.72,13.42,13.42,2.3,3.32-.98,6.72-4.26,4.65-2.07-2.89-13.79-12.37-14.33-14.85-.37-1.66.39-3.54,2.15-3.92Z"/>
  <path d="M176.75,24.03c3.12-.69,5.11,2.35,3.4,4.96l-13.81,13.81c-3.25,2.05-6.45-1.32-4.44-4.44,2.88-2.07,12.37-13.79,14.85-14.33Z"/>
  <path d="M44.51,126.72c3.06-.34,5.07,3.97,2.17,5.71l-18.32,7.76c-3.08.59-5.32-3.4-2.81-5.55l18.96-7.91Z"/>
  <path d="M165.09,126.71c2.73-.49,16.13,6.79,19.69,7.78,2.81,1.99.76,6.27-2.57,5.7l-18.32-7.76c-2.56-1.38-1.24-5.28,1.2-5.72Z"/>
  <path d="M82.6,38.61c-1.42,1.55-4.03,1.05-5.1-.69l-7.55-18.16c-.45-3.63,4.21-5.1,5.98-2.06,1.33,2.27,6.97,15.61,7.41,17.91.2,1.03-.01,2.2-.75,3Z"/>
  <path d="M127.97,38.61c-.73-.8-.94-1.97-.75-3,.44-2.3,6.08-15.64,7.41-17.91,1.78-3.03,6.43-1.56,5.98,2.06l-7.55,18.16c-1.06,1.74-3.67,2.24-5.1.69Z"/>
  <path d="M14.15,55.15c1.06-.23,1.69,0,2.66.29,5.51,1.64,11.43,5.35,17.04,7.07,3.06,2.64,1.2,6.84-2.98,5.7l-17.53-7.36c-2.27-1.33-1.76-5.15.81-5.7Z"/>
  <path d="M194.66,55.16c3.91-.59,5.48,3.66,2.57,5.69l-17.53,7.36c-4.02,1.07-5.93-2.67-3.21-5.54l18.18-7.51Z"/>
  <path d="M104.4,5.36c2.16-.47,3.75.67,4,2.83.42,3.59.5,16-.03,19.44-.54,3.44-5.75,3.6-6.21-.36-.42-3.62-.51-15.98.03-19.44.18-1.15,1.04-2.22,2.2-2.47Z"/>
  <path d="M58.1,148.13c3.26-.75,5.13,2.21,3.4,4.96l-13.42,13.42c-3.25,2.05-6.45-1.32-4.44-4.44,2.88-2.06,11.93-13.36,14.46-13.94Z"/>
  <path d="M150.29,148.13c1.32-.39,2.36-.03,3.42.7,1.64,1.13,11.89,11.39,13.03,13.03,2.3,3.32-.98,6.72-4.26,4.65-2.06-2.88-13.36-11.93-13.94-14.46-.34-1.48.17-3.46,1.75-3.92Z"/>
  <path d="M185.31,101.84c1.54-.34,12.69-.35,14.23,0,3.06.68,3.04,5.59-.33,6.12-1.94.3-12.14.33-13.9-.06-2.98-.67-2.99-5.39,0-6.06Z"/>
  <path class="cls-1" d="M105.67,80.36l4.75,10.04,11.59,1.82-8.11,7.85,1.5,11.41-9.98-4.97-10.24,4.97,1.48-11.39-8.1-8.06,11.6-1.63c.45-.29,3.77-8.19,4.65-9.54.24-.38-.04-.7.87-.5Z"/>
  <rect x="95.95" y="170.22" width="18.67" height="6.22"/>
</svg>