<?xml version="1.0" encoding="UTF-8"?>
<svg id="Layer_1" data-name="Layer 1" xmlns="http://www.w3.org/2000/svg" viewBox="0 0 210.59 203.48">
  <path d="M94.17,160.31c-.6-.56-1.39-3.38-1.92-4.4-7.64-14.69-31.27-9.97-32.48,6.92-.56,7.82,3.36,13.31,9.5,17.58-3.64,20.13-32.48,17.49-31.95-3.13,4.4-19.87,9.83-39.52,14.79-59.26,2.2-6.47,7.14-10.69,13.98-11.57,19.1-.19,38.21-.18,57.28.02,6.86.07,14.74-.55,21.44-.02,6.92.55,12.03,5.59,14.12,11.94,5.88,17.83,8.68,37.87,14.27,55.92,1.55,7.29-1.47,14.97-8.31,18.3-10.51,5.11-21.24-1.42-23.28-12.45,8.27-4.66,11.96-13.96,8.18-22.95-5.61-13.35-26.09-13.59-31.75-.09-.58,1.39-.32,3.17-2.2,3.74-6.36-.34-13.56.64-19.83.07-.59-.05-1.4-.2-1.84-.61ZM136.59,115.29c-3.06.57-4.42,4.65-2.47,6.99,3.4,4.08,9.69-.12,7.19-4.87-.88-1.68-2.89-2.46-4.72-2.13ZM72.15,124.01c.08-2.88.67-7.87-3.66-7.43-3.63.37-2.85,4.87-2.78,7.43-2.6.02-7-.65-7.64,2.83-.78,4.25,4.59,4.05,7.38,3.88.34,2.31-.57,6.79,2.51,7.42,4.76.98,4.36-4.27,4.2-7.42,3.12.15,8.39.5,7.42-4.2-.62-3.02-5.12-2.51-7.42-2.51ZM129.38,123.03c-6.54.52-4.25,11.15,2.29,8.25,4.27-1.89,2.42-8.63-2.29-8.25ZM145.11,123.04c-4.65.18-5.71,6.92-1.3,8.39,6.82,2.27,7.99-8.64,1.3-8.39ZM101,123.82c-2.88.22-5.41.46-4.83,4.17.21,1.34,1.28,2.1,2.55,2.35,2.14.43,10.72.38,13.02.08,3.97-.51,4.18-5.24,1.15-6.25-2.37-.79-9.17-.56-11.88-.35ZM136.33,131.03c-4.75.88-3.97,9.7,2.41,8.34,4.89-1.05,3.98-9.53-2.41-8.34Z"/>
  <path d="M166.59,131.23l-4.38-15.87c-2.95-7.46-9.62-12.41-17.67-13.04h-78.46c-8.39.81-15.02,6.07-17.74,14l-4.05,14.91v-45.54c0-.18,1.36-2.88,1.8-3.1l59.26-49.64,59.44,49.64c.5.28,1.8,2.81,1.8,3.1v45.54ZM103.89,55.11h-8v8h8v-8ZM115.25,55.11h-8.26v8h8v-7.61c0-.05.39-.29.26-.39ZM103.89,65.69h-8v7.35c0,.08-.35.37-.26.65h8.26v-8ZM114.99,65.69h-8v8h8.26c.07-.19-.26-.31-.26-.39v-7.61Z"/>
  <path d="M82.74,27.51c.17.2,1.43-.85,1.67-1.04,6.92-5.36,13.44-11.63,20.28-17.14l1.2-.21,76.73,64.44.2.48-7.45,9.09L105.53,24.94l-69.67,58.27-8.09-9.14,22.19-18.84V19.25h32.77v8.26Z"/>
  <path d="M131.7,153.74c15.55-2.1,17.25,19.71,3.52,21.32-14.23,1.67-16.23-19.6-3.52-21.32Z"/>
  <path d="M74.67,153.74c17.27-2.5,17,22.57,1.48,21.34-13.01-1.03-12.23-19.79-1.48-21.34Z"/>
</svg>