<?xml version="1.0" encoding="UTF-8"?>
<svg id="Layer_1" data-name="Layer 1" xmlns="http://www.w3.org/2000/svg" viewBox="0 0 210.59 203.48">
  <path d="M79.51,18.12c25.93,32.4,64.05,46.91,104.04,53.55,5.27.87,11.61-1.49,9.89,7.1l-18.03,42.68c-1.58,3.9-9.23.33-10.31,3.65s3.08,5.75,4.41,8.39l-18.55,47.01c-1.22,1.98-4.29,3.94-6.54,4.4-7.02,1.42-21.75-.79-29.14-2.22-4.1-.79-17.19-3.84-20.19-5.66-5.11-3.1,3.56-17.71-1.17-18.72l-12.44,11.48-1.98.07-62.63-40.38v-5.96l28.34-61.66c2.34-2.52,14.58,3.62,15.41-.49l-7.75-12.72,21.67-30.5h4.97ZM101.11,67.56c6.5-6.39-6.88-16.66-11.13-16.72-11.79-.15-23.71,27.87,3.27,20.28,1.4-.39,7.08-2.8,7.86-3.57ZM93.38,94.61l.1-7.44-11.98-.46.94,7.52,10.95.38ZM169.99,100.62c.44-1.71-.71-1.98-1.48-2.98-.93-1.21-9.42-10.01-10.44-8.93l-1.99,14.9,13.91-2.99ZM70.07,92.93c-12.72,5.89-3.83,17.24,4.22,5.23l-4.22-5.23ZM104.08,94.78c-1.47.38-4.2,3.41-3.58,5.16,3.06,2.37,4.83,8.5,8.88,7.25,7.48-2.32-2.12-13.23-5.29-12.41ZM57.39,104.85h-5.48s-1.24,7.71-1.24,7.71c-5-.87-8.67,2.04-6.38,7.07l7.37.89c-.57,11.82,9.43,10.04,7.97-.99,5.91.35,9.5-1.17,5.56-7.06l-6.56-.9-1.24-6.72ZM148.99,114.43c.9-1.4-.72-6.24-2.52-6.75l-8.16,4.52,3.53,5.24,7.15-3.01ZM129.17,120.48l.63-6.99c-5.05-1.5-11.09-6.25-12.5,1.61.08,3.25,8.95,5.28,11.87,5.38ZM119.08,136.69c-11.51,1.05-11.89,8.69-7.77,18.14,3.37,7.72,8.61,7.41,15.9,4.92,9.4-3.21,11.48-7.66,8.04-16.92-2.41-6.48-9.93-6.71-16.17-6.14Z"/>
</svg>